<svg width="686" height="482" viewBox="0 0 686 482" fill="none" xmlns="http://www.w3.org/2000/svg">
<path d="M375.057 219.841H304.24V156.202H375.057V219.841ZM375.057 0.962891H304.24V65.9938H375.057V0.962891ZM458.837 156.095H388.02V219.734H458.837V156.095ZM291.384 78.8503H220.567V143.239H291.384V78.8503ZM375.057 78.8503H304.24V143.239H375.057V78.8503ZM671.608 185.986C656.181 175.594 620.612 171.844 593.292 176.986C589.757 151.274 575.4 128.882 549.259 108.741L534.26 98.7777L524.297 113.777C504.584 143.56 499.227 192.628 520.333 224.983C511.012 230.018 492.692 236.875 468.479 236.447H2.76078C-6.56002 290.871 8.97464 361.581 49.9004 410.113C89.6477 457.146 149.215 481.037 227.103 481.037C395.734 481.037 520.547 403.364 578.936 262.266C601.863 262.723 651.359 262.381 676.751 213.841C678.357 211.161 683.822 199.699 685.857 195.521L671.608 185.986ZM124.038 156.095H53.3287V219.734H124.145V156.095H124.038ZM207.711 156.095H136.894V219.734H207.711V156.095ZM291.384 156.095H220.567V219.734H291.384V156.095ZM207.711 78.8503H136.894V143.239H207.711V78.8503Z" fill="#A7A7A7"/>
</svg>
