<svg width="40" height="41" viewBox="0 0 40 41" fill="none" xmlns="http://www.w3.org/2000/svg">
<path d="M19.9208 0.363525C8.96452 0.363525 0.0908203 9.37258 0.0908203 20.4959C0.0908203 29.9573 6.48534 37.8098 15.1127 40.0235C15.0131 39.7717 14.9642 39.4187 14.9642 39.0675V35.6441H12.485C11.1467 35.6441 9.90626 35.041 9.36116 33.9324C8.71643 32.7245 8.6169 30.862 6.98151 29.7038C6.4854 29.3011 6.88198 28.8985 7.42708 28.9482C8.46834 29.2497 9.3105 29.9556 10.1037 31.0111C10.8969 32.0682 11.2446 32.3201 12.7314 32.3201C13.425 32.3201 14.5153 32.2704 15.5076 32.1179C16.0527 30.7078 16.9944 29.4501 18.1353 28.8471C11.4927 28.0418 8.31984 24.7195 8.31984 20.1893C8.31984 18.2257 9.162 16.3632 10.5509 14.7527C10.1054 13.1917 9.50967 9.97054 10.7501 8.71289C13.7255 8.71289 15.5093 10.6765 15.9548 11.1785C17.4416 10.6748 19.0787 10.3732 20.763 10.3732C22.4979 10.3732 24.0843 10.6748 25.5711 11.1785C26.0167 10.6748 27.8022 8.71289 30.7758 8.71289C31.9657 9.92087 31.4206 13.1917 30.9244 14.7527C32.3133 16.3135 33.1065 18.2257 33.1065 20.1893C33.1065 24.7195 29.9827 28.0418 23.3907 28.746C25.2252 29.702 26.5145 32.4195 26.5145 34.4327V39.0178C26.5145 39.1686 26.4656 39.3193 26.4656 39.4701C34.1985 36.7527 39.7508 29.3046 39.7508 20.4959C39.7508 9.37258 30.8771 0.363525 19.9208 0.363525Z" fill="#A7A7A7"/>
</svg>
