<svg width="434" height="510" viewBox="0 0 434 510" fill="none" xmlns="http://www.w3.org/2000/svg">
<path d="M49.7618 481.702C76.6111 484.908 106.778 502.301 132.024 505.372C157.406 508.577 165.261 488.087 165.261 488.087C165.261 488.087 193.823 481.702 223.852 480.966C253.909 480.124 282.361 487.218 282.361 487.218C282.361 487.218 287.879 499.855 298.179 505.372C308.479 510.996 330.654 511.758 344.866 496.784C359.106 481.702 397.099 462.704 418.433 450.828C439.902 438.925 435.961 420.773 422.483 415.255C409.004 409.739 397.97 401.042 398.812 384.356C399.546 367.806 386.909 356.773 386.909 356.773C386.909 356.773 397.97 320.357 387.671 290.192C377.371 260.163 343.401 211.871 317.285 175.564C291.17 139.148 313.343 97.1071 289.566 43.3794C265.786 -10.4291 204.125 -7.24847 170.888 15.6865C137.652 38.623 147.842 95.5022 149.445 122.489C151.048 149.338 150.179 168.551 147.108 175.455C144.037 182.466 122.596 207.931 108.356 229.264C94.1432 250.705 83.8418 294.975 73.4338 313.238C63.2422 331.392 70.3631 347.942 70.3631 347.942C70.3631 347.942 63.2439 350.387 57.618 362.292C52.1004 374.059 41.0669 379.683 21.201 383.517C1.47092 387.565 1.47092 400.284 6.22729 414.524C11.0095 428.737 6.22728 436.7 0.709708 454.854C-4.80625 473.005 22.8043 478.521 49.7618 481.702ZM328.86 398.895C342.964 405.063 363.237 396.475 369.406 390.306C375.549 384.165 379.897 375.034 379.897 375.034C379.897 375.034 386.066 378.104 385.44 387.859C384.787 397.752 389.679 411.856 398.919 416.748C408.159 421.613 422.263 428.406 414.953 435.2C407.506 441.994 366.308 458.571 353.998 471.507C341.796 484.36 325.762 494.878 316.005 491.78C306.142 488.709 297.526 475.231 301.767 455.501C306.142 435.853 309.838 414.301 309.212 401.991C308.561 389.681 306.142 373.104 309.212 370.657C312.283 368.238 317.175 369.406 317.175 369.406C317.175 369.406 314.727 392.755 328.86 398.895ZM237.332 66.316C250.919 66.316 261.872 79.7948 261.872 96.3717C261.872 108.139 256.354 118.331 248.283 123.223C246.245 122.381 244.125 121.429 241.788 120.449C246.68 118.032 250.075 111.863 250.075 104.742C250.075 95.4214 244.343 87.7576 237.14 87.7576C230.129 87.7576 224.285 95.4198 224.285 104.742C224.285 108.141 225.128 111.536 226.513 114.2C222.274 112.486 218.442 111.021 215.372 109.852C213.768 105.802 212.816 101.236 212.816 96.3733C212.818 79.7964 223.742 66.316 237.332 66.316ZM203.687 118.114C210.373 119.282 228.742 127.245 235.538 129.691C242.332 132.027 249.859 136.375 249.125 140.724C248.283 145.207 244.778 145.207 235.538 150.833C226.407 156.351 206.46 168.661 200.073 169.503C193.713 170.345 190.1 166.757 183.304 162.382C176.509 157.925 163.766 147.517 166.971 142.001C166.971 142.001 176.944 134.364 181.293 130.452C185.642 126.402 196.892 116.863 203.687 118.114ZM174.391 71.0998C185.098 71.0998 193.822 83.8449 193.822 99.5523C193.822 102.406 193.495 105.068 192.98 107.732C190.316 108.574 187.654 109.96 185.098 112.189C183.848 113.249 182.678 114.2 181.62 115.26C183.304 112.081 183.957 107.515 183.195 102.731C181.728 94.2529 175.994 87.9758 170.368 88.8178C164.715 89.7697 161.345 97.5418 162.704 106.13C164.199 114.827 169.823 121.102 175.557 120.152C175.884 120.044 176.183 119.935 176.509 119.825C173.765 122.489 171.21 124.826 168.546 126.728C160.802 123.113 155.068 112.297 155.068 99.5523C155.069 83.7366 163.656 71.0998 174.391 71.0998ZM114.74 276.713C125.773 259.321 132.892 221.301 143.926 208.664C155.069 196.055 163.656 169.178 159.743 157.303C159.743 157.303 183.522 185.755 200.073 181.081C216.65 176.297 253.909 148.606 259.425 153.362C264.942 158.145 312.391 262.5 317.174 295.737C321.957 328.945 313.995 354.329 313.995 354.329C313.995 354.329 295.842 349.545 293.503 360.579C291.166 371.72 291.166 412.078 291.166 412.078C291.166 412.078 266.626 446.048 228.634 451.672C190.641 457.189 171.617 453.167 171.617 453.167L150.284 428.735C150.284 428.735 166.862 426.29 164.524 409.631C162.187 393.081 113.867 370.143 105.17 349.543C96.477 328.944 103.57 294.132 114.74 276.713ZM20.7921 401.341C22.6944 393.189 47.315 393.19 56.7727 387.455C66.2305 381.721 68.1311 365.253 75.7691 360.905C83.2956 356.448 97.2107 372.265 102.945 381.177C108.571 389.873 130.122 427.893 138.927 437.349C147.84 446.888 156.021 459.525 153.466 470.885C151.048 482.243 137.65 490.533 137.65 490.533C125.666 494.229 92.2394 479.798 77.0491 473.438C61.8588 467.053 23.2131 465.149 18.2402 459.525C13.1315 453.791 20.6855 441.154 22.696 429.168C24.4883 417.049 18.8641 409.521 20.7921 401.341Z" fill="#A7A7A7"/>
</svg>
