<svg width="800" height="800" viewBox="0 0 800 800" fill="none" xmlns="http://www.w3.org/2000/svg">
<g clip-path="url(#clip0_3_2)">
<path d="M570.287 387.265C570.287 356.084 559.1 334.502 549.508 317.692C536.716 296.912 524.718 279.325 524.718 258.537C524.718 235.343 542.314 213.762 567.096 213.762C568.209 213.762 569.289 213.901 570.353 213.958C525.479 172.849 465.686 147.74 400.025 147.74C311.889 147.74 234.369 192.949 189.258 261.442C195.175 261.614 200.757 261.745 205.496 261.745C231.881 261.745 272.72 258.537 272.72 258.537C286.314 257.727 287.918 277.713 274.341 279.317C274.341 279.317 260.673 280.921 245.475 281.715L337.318 554.975L392.528 389.418L353.219 281.739C339.642 280.945 326.768 279.341 326.768 279.341C313.183 278.539 314.77 257.76 328.364 258.562C328.364 258.562 370.021 261.762 394.795 261.762C421.181 261.762 462.036 258.562 462.036 258.562C475.646 257.76 477.226 277.729 463.64 279.341C463.64 279.341 449.94 280.945 434.774 281.739L525.938 552.904L551.096 468.837C561.997 433.923 570.287 408.855 570.287 387.265Z" fill="#A7A7A7"/>
<path d="M147.757 399.992C147.757 499.838 205.79 586.124 289.931 627.012L169.592 297.338C155.597 328.7 147.757 363.425 147.757 399.992Z" fill="#A7A7A7"/>
<path d="M404.436 422.056L328.741 641.972C351.345 648.618 375.243 652.26 400.008 652.26C429.381 652.26 457.551 647.177 483.773 637.954C483.085 636.874 482.48 635.736 481.964 634.476L404.436 422.056Z" fill="#A7A7A7"/>
<path d="M526.813 618.034C601.813 574.306 652.252 493.054 652.252 400C652.26 356.141 641.056 314.909 621.348 278.973C622.445 287.002 623.051 295.636 623.051 304.908C623.051 330.508 618.279 359.284 603.867 395.261L526.813 618.034Z" fill="#A7A7A7"/>
<path d="M400 0C179.085 0 0 179.085 0 400C0 620.915 179.085 800 400 800C620.915 800 800 620.915 800 400C800 179.085 620.915 0 400 0ZM400.008 680.561C245.311 680.561 119.448 554.697 119.448 399.992C119.448 245.295 245.303 119.439 400.008 119.439C554.697 119.439 680.544 245.295 680.544 399.992C680.544 554.697 554.697 680.561 400.008 680.561Z" fill="#A7A7A7"/>
</g>
<defs>
<clipPath id="clip0_3_2">
<rect width="800" height="800" fill="white"/>
</clipPath>
</defs>
</svg>
